<svg xmlns="http://www.w3.org/2000/svg" aria-hidden="true" style="position:absolute;width:0;height:0;overflow:hidden">
  <defs>
    <symbol id="icon-antenna" viewBox="0 0 32 32">
      <path fill="--color1" d="m30.773 22.098-8.443-8.505.937-4.615c.242.094.499.144.758.146h.006a2.159 2.159 0 1 0-2.008-1.435l-4.96.605L8.972.161a.534.534 0 0 0-.377-.16.532.532 0 0 0-.373.155L6.709 1.66a.534.534 0 0 0 0 .754l.814.826a14.943 14.943 0 0 0 2.519 17.663.513.513 0 0 0 .146.098c-.034.18-.051.364-.052.547v6.187h-6.4a2.67 2.67 0 0 0-2.667 2.667v1.067c0 .295.239.533.533.533h24.533a.533.533 0 0 0 .533-.533v-1.067a2.67 2.67 0 0 0-2.667-2.667h-6.4v-2.742a15.09 15.09 0 0 0 3.049.32 14.854 14.854 0 0 0 7.04-1.783l.818.823a.534.534 0 0 0 .377.16.532.532 0 0 0 .373-.155l1.513-1.504a.534.534 0 0 0 0-.754zM23.28 6.233a1.066 1.066 0 1 1 .752 1.822h-.003a1.067 1.067 0 0 1-.747-1.823h-.002zm-1.256 3.505-.598 2.946-1.175-1.182 1.774-1.763zm-.605-.902-1.92 1.909-1.485-1.493 3.405-.415zM24.004 28.8a1.6 1.6 0 0 1 1.6 1.6v.533H2.137V30.4a1.6 1.6 0 0 1 1.6-1.6h20.267zm-7.467-2.133v1.067h-5.333v-1.067h5.333zM11.204 25.6v-4.053c0-1.294 1.196-2.347 2.667-2.347s2.667 1.053 2.667 2.347V25.6h-5.333zm6.4-1.696v-2.357c0-1.882-1.675-3.413-3.733-3.413a3.8 3.8 0 0 0-3.281 1.786A13.87 13.87 0 0 1 8.311 4.033l18.602 18.708a13.818 13.818 0 0 1-9.309 1.163zm11.289-.684L7.836 2.039l.755-.752 7.935 7.98c.004 0 .006.007.01.01l13.115 13.191-.757.752z" style="fill:var(--color1, --color1)"/>
      <path fill="--color2" d="M13.876 20.267h-.005a1.6 1.6 0 1 0-.004 3.2h.005a1.6 1.6 0 1 0 .004-3.2zm.373 1.978a.534.534 0 0 1-.752-.756.534.534 0 0 1 .373-.155.532.532 0 0 1 .373.911h.005z" style="fill:var(--color2, --color2)"/>
    </symbol>
    <symbol id="icon-clock" viewBox="0 0 32 32">
      <path fill="--color1" d="M31.297 15.301C31.295 6.849 24.442-.002 15.989 0S.686 6.855.688 15.308a15.304 15.304 0 0 0 10.649 14.576.662.662 0 0 0 .529-.065.637.637 0 0 0 .283-.356l3.865-12.25a1.912 1.912 0 1 0-.84-3.635l-5.106-5.107a.637.637 0 0 0-.902.902l5.103 5.109a1.876 1.876 0 0 0 .536 2.309l-3.683 11.673C3.844 25.783.118 17.71 2.799 10.432S13.553-.572 20.831 2.109s11.004 10.754 8.323 18.032a14.042 14.042 0 0 1-7.462 7.973l-.398-1.874a.638.638 0 0 0-1.048-.344l-3.837 3.426a.637.637 0 0 0 .231 1.084l4.899 1.563a.638.638 0 0 0 .819-.74l-.391-1.839a15.255 15.255 0 0 0 9.329-14.089zm-15.305-.637a.638.638 0 1 1 0 1.277.638.638 0 0 1 0-1.277zm2.101 14.864 2.184-1.948.603 2.84-2.787-.892z" style="fill:var(--color1, --color1)"/>
      <path fill="--color2" d="M15.354 3.185V4.46a.638.638 0 1 0 1.276 0V3.185a.638.638 0 0 0-1.276 0zM3.876 14.664a.638.638 0 0 0 0 1.276h1.275a.638.638 0 1 0 0-1.276H3.876zM28.108 15.939a.638.638 0 1 0 0-1.276h-1.275a.638.638 0 0 0 0 1.276h1.275z" style="fill:var(--color2, --color2)"/>
    </symbol>
    <symbol id="icon-diagram" viewBox="0 0 32 32">
      <path fill="--color2" d="M14.926 14.965h1.066v4.798h-1.066v-4.797zM19.19 17.097h1.066v2.665H19.19v-2.665zM10.661 18.696h1.066v1.066h-1.066v-1.066zM7.463 18.163h1.066v1.599H7.463v-1.599z" style="fill:var(--color2, --color2)"/>
      <path fill="--color1" d="M1.599 28.291h25.587a1.6 1.6 0 0 0 1.599-1.599V24.56a1.6 1.6 0 0 0-1.599-1.599h-.533V9.668L29.681 6.8a1.608 1.608 0 1 0-.746-.763L26.654 8.2V6.97a1.6 1.6 0 0 0-1.599-1.599H3.733A1.6 1.6 0 0 0 2.134 6.97v15.992h-.533a1.6 1.6 0 0 0-1.599 1.599v2.132a1.6 1.6 0 0 0 1.599 1.599zM30.384 4.837a.533.533 0 1 1 0 1.067.533.533 0 0 1 0-1.067zM3.198 6.969c0-.294.239-.533.533-.533h21.322c.294 0 .533.239.533.533v2.239l-1.066 1.013V8.035a.533.533 0 0 0-.533-.533H4.797a.533.533 0 0 0-.533.533v13.326c0 .294.239.533.533.533h19.19a.533.533 0 0 0 .533-.533v-9.674l1.066-1.01v12.284H3.198V6.969zm4.798 6.93a1.598 1.598 0 1 0 1.107 2.749l1.853.93a.532.532 0 0 0 .636-.123l3.939-4.431 3.872 2.901a.533.533 0 0 0 .686-.039l3.365-3.188v8.131H5.33V8.569h18.124v2.66l-3.771 3.572-3.904-2.927a.533.533 0 0 0-.718.072l-3.993 4.493-1.493-.746c.011-.064.018-.129.02-.193a1.6 1.6 0 0 0-1.599-1.599zm.533 1.599a.533.533 0 1 1-1.067 0 .533.533 0 0 1 1.067 0zm3.198 8.529h5.331v.533a.533.533 0 0 1-.533.533h-4.264a.533.533 0 0 1-.533-.533v-.533zm-10.661.533c0-.294.239-.533.533-.533h9.062v.533a1.6 1.6 0 0 0 1.599 1.599h4.264a1.6 1.6 0 0 0 1.599-1.599v-.533h9.062c.294 0 .533.239.533.533v2.132a.533.533 0 0 1-.533.533H1.598a.533.533 0 0 1-.533-.533V24.56z" style="fill:var(--color1, --color1)"/>
    </symbol>
    <symbol id="icon-astronaut" viewBox="0 0 32 32">
      <path fill="--color2" d="M31.974 4.524a.534.534 0 0 0-.43-.363l-1.91-.278-.855-1.731c-.179-.365-.777-.365-.956 0l-.855 1.731-1.91.278a.535.535 0 0 0-.296.91l1.383 1.348-.326 1.903c-.034.2.048.402.212.522a.53.53 0 0 0 .562.04l1.709-.899 1.709.899a.536.536 0 0 0 .775-.563l-.326-1.903 1.383-1.348a.536.536 0 0 0 .135-.547zm-2.463 1.327a.534.534 0 0 0-.153.472l.191 1.114-1-.526a.533.533 0 0 0-.498 0l-1.001.526.191-1.114a.534.534 0 0 0-.153-.472l-.81-.789 1.119-.163a.532.532 0 0 0 .402-.292l.5-1.013.5 1.013a.535.535 0 0 0 .402.292l1.119.163-.809.789zM26.134 20.522h-1.067v1.067h1.067v-1.067zM26.134 22.656h-1.067v1.067h1.067v-1.067zM27.2 21.589h-1.067v1.067H27.2v-1.067zM25.067 21.589H24v1.067h1.067v-1.067zM22.4 26.389h-1.067v1.067H22.4v-1.067zM22.4 28.522h-1.067v1.067H22.4v-1.067zM23.467 27.456H22.4v1.067h1.067v-1.067zM21.333 27.456h-1.067v1.067h1.067v-1.067zM16 24.256h-1.067v1.067H16v-1.067zM16 26.389h-1.067v1.067H16v-1.067zM17.067 25.322H16v1.067h1.067v-1.067zM14.933 25.322h-1.067v1.067h1.067v-1.067zM5.867 6.122H4.8v1.067h1.067V6.122zM5.867 8.255H4.8v1.067h1.067V8.255z" style="fill:var(--color2, --color2)"/>
      <path fill="--color2" d="M6.933 7.189H5.866v1.067h1.067V7.189zM4.8 7.189H3.733v1.067H4.8V7.189z" style="fill:var(--color2, --color2)"/>
      <path fill="--color1" d="M24.715 14.159a1.775 1.775 0 0 0-1.188-.705 1.778 1.778 0 0 0-1.34.352l-1.252.96-1.898 1.417-1.358-.541c2.421-1.086 4.114-3.508 4.114-6.32 0-3.823-3.123-6.933-6.961-6.933s-6.961 3.11-6.961 6.933a6.86 6.86 0 0 0 1.12 3.758l-2.764-.024h-.005c-.009 0-.015.004-.023.005a.515.515 0 0 0-.155.031l-.038.013c-.006.003-.013.003-.019.006l-3.233 1.596-.001.001-1.893.911a.397.397 0 0 0-.063.035 1.779 1.779 0 0 0-.598 2.295c.22.429.595.745 1.056.889a1.776 1.776 0 0 0 1.378-.128l1.388-.738 2.264-1.169 1.357-.008L2.2 22.211l-.002.001-1.339 1.333c-.316.315-.49.732-.49 1.178s.174.863.49 1.179c.325.323.752.485 1.179.485s.854-.162 1.18-.485l1.314-1.309 1.741-1.3.901.897-1.762 1.754-.002.001-1.339 1.333c-.316.315-.49.732-.49 1.178s.174.863.49 1.179c.325.323.753.485 1.18.485s.855-.162 1.18-.485l3.482-3.467.001-.002 1.01-1-.004-.004c.006-.006.015-.009.022-.015l5.166-5.658 3.471.494a.52.52 0 0 0 .262-.033c.018-.006.033-.015.05-.023.019-.01.039-.015.058-.027l3.213-2.133c.012-.008.018-.021.029-.029.013-.01.029-.014.041-.026l1.271-1.191c.662-.62.753-1.635.212-2.362zM2.13 17.77a.714.714 0 0 1-.558.052.717.717 0 0 1-.213-1.26l1.314-.632.449 1.312-.992.528zm3.498-1.828-1.548.8-.439-1.283 2.027-1.001-.04 1.484zm15.099-6.62a5.79 5.79 0 0 1-.599 2.559l-4.181-1.899a1.863 1.863 0 0 0-.788-1.388l1.464-4.86c2.378.756 4.105 2.974 4.105 5.588zm-11.789 0c0-3.235 2.644-5.867 5.894-5.867.253 0 .5.021.745.052l-1.432 4.754c-.019-.001-.037-.006-.057-.006-1.033 0-1.873.837-1.873 1.867s.84 1.867 1.873 1.867c.694 0 1.294-.383 1.618-.945l3.862 1.755a5.894 5.894 0 0 1-4.737 2.39c-3.25 0-5.894-2.632-5.894-5.867zm5.956.8c0 .441-.362.8-.806.8s-.806-.359-.806-.8c0-.441.362-.8.806-.8s.806.359.806.8zM2.465 25.146a.608.608 0 0 1-.854.001.592.592 0 0 1 0-.844l.962-.958.851.848-.959.955zm3.214 3.734a.608.608 0 0 1-.855.001.592.592 0 0 1 0-.844l.963-.959.852.848-.96.955zm3.481-3.469-.002.001-1.765 1.76-.852-.848 1.763-1.755.002-.001c.04-.04.065-.088.09-.135.007-.014.02-.026.026-.04.017-.041.019-.085.026-.129.003-.025.014-.047.014-.073 0-.036-.013-.07-.02-.106-.006-.032-.006-.065-.019-.095a.55.55 0 0 0-.091-.138c-.01-.012-.014-.027-.025-.038h-.001l-.001-.002-1.607-1.6c-.017-.017-.039-.024-.058-.038a.507.507 0 0 0-.087-.058.515.515 0 0 0-.093-.033.507.507 0 0 0-.103-.02.5.5 0 0 0-.095.005.53.53 0 0 0-.104.02.477.477 0 0 0-.094.045c-.02.011-.042.015-.061.029L4.23 23.486l-.901-.897 2.399-2.386 4.361 4.289-.928.919zm6.819-7.017c-.015-.002-.03.004-.045.003a.556.556 0 0 0-.3.075.492.492 0 0 0-.083.061c-.013.011-.028.017-.04.029l-4.698 5.146-4.328-4.257 2.833-2.818a.534.534 0 0 0-.379-.911v-.001l-2.219.013.028-1.607 3.104.027a6.947 6.947 0 0 0 4.981 2.101c.437 0 .864-.045 1.279-.123.04.032.079.065.13.085l2.41.96.331 1.644-3.003-.427zm4.041.178-.313-1.558 1.446-1.08.947 1.257-2.08 1.381zm3.754-2.831-.838.785-.931-1.236.831-.637a.735.735 0 0 1 .543-.143.718.718 0 0 1 .48.284.713.713 0 0 1-.085.947z" style="fill:var(--color1, --color1)"/>
      <path fill="--color1" d="m13.602 18.544-2.143-2.133a.534.534 0 0 0-.753 0l-2.142 2.133a.537.537 0 0 0 0 .756l2.142 2.133a.536.536 0 0 0 .753 0l2.143-2.133a.535.535 0 0 0 0-.756zm-2.519 1.759-1.387-1.381 1.387-1.381 1.387 1.381-1.387 1.381zM17.164 5.071l-.258 1.036c.071.018 1.738.452 1.738 2.149h1.067c0-2.017-1.666-2.965-2.547-3.185zM19.711 9.322h-1.067v1.067h1.067V9.322z" style="fill:var(--color1, --color1)"/>
    </symbol>
    <symbol id="icon-envelope" viewBox="0 0 43 32">
      <path d="M38.667 0H4C1.794 0 0 1.794 0 4v24c0 2.206 1.794 4 4 4h34.667c2.206 0 4-1.794 4-4V4c0-2.206-1.794-4-4-4zm0 2.667c.181 0 .353.038.511.103L21.334 18.236 3.49 2.77a1.32 1.32 0 0 1 .511-.103h34.667zm0 26.666H4A1.334 1.334 0 0 1 2.667 28V5.587L20.46 21.008a1.335 1.335 0 0 0 1.748 0L40.001 5.587V28c0 .736-.598 1.333-1.333 1.333z"/>
    </symbol>
    <symbol id="icon-smartphone" viewBox="0 0 20 32">
      <path d="M17 0H3C1.346 0 0 1.346 0 3v26c0 1.654 1.346 3 3 3h14c1.654 0 3-1.346 3-3V3c0-1.654-1.346-3-3-3zM3 2h14a1 1 0 0 1 1 1v21H2V3a1 1 0 0 1 1-1zm14 28H3a1 1 0 0 1-1-1v-3h16v3a1 1 0 0 1-1 1z"/>
      <path d="M4.707 27.478c.391.365.391.956 0 1.321s-1.024.365-1.414 0c-.391-.365-.391-.956 0-1.321s1.024-.365 1.414 0z"/>
    </symbol>
    <symbol id="icon-company1" viewBox="0 0 28 32">
      <path d="m4.085 0 4.771 4.517L0 4.512v21.915h23.149v-8.379l4.766 4.512V.001H4.085zm18.854 17.517L9.411 4.71h13.528v12.807zm-4.2 5.704H3.663V8.482h1.066v13.741h14.01v.998zM7.223 29.344h.465l-.811 1.529v.891h-.422v-.891l-.813-1.529h.467l.557 1.147.557-1.147zm.7 2.42.196-.563h.938l.198.563h.439l-.916-2.42h-.377l-.914 2.42h.437zm.665-1.906.351 1.004h-.701l.351-1.004zm2.217.946a.544.544 0 0 0-.091.303v.004c0 .204.072.37.214.497.144.126.336.189.575.189s.445-.065.618-.194l.136.161h.469l-.356-.421c.14-.191.209-.435.209-.733h-.351v.012a.958.958 0 0 1-.104.437l.003-.006-.467-.552.165-.12a.911.911 0 0 0 .249-.25l.002-.003a.524.524 0 0 0 .076-.274v-.015a.494.494 0 0 0-.17-.373h-.001a.608.608 0 0 0-.408-.156h-.025.001l-.034-.001a.64.64 0 0 0-.432.167h.001a.591.591 0 0 0-.173.451v-.001c0 .078.018.158.055.241.038.083.104.184.198.303-.18.129-.3.24-.361.334zm1.092.535a.613.613 0 0 1-.382.136c-.121 0-.217-.035-.289-.105s-.108-.161-.108-.273c0-.13.067-.245.2-.346l.052-.037.529.623zm-.434-1.072c-.114-.141-.171-.258-.171-.351 0-.081.023-.148.07-.201s.109-.08.188-.08c.073 0 .133.023.181.068a.21.21 0 0 1 .072.158v.012c0 .09-.04.171-.103.225l-.052.042-.184.126zm3.94 1.314c-.166.144-.387.216-.663.216h-.02a.944.944 0 0 1-.494-.139l.004.002c-.146-.092-.259-.222-.339-.391s-.121-.364-.125-.587v-.226c0-.228.04-.429.121-.603s.197-.308.347-.402a.963.963 0 0 1 .506-.141h.02-.001c.267 0 .482.073.645.218s.258.35.284.615h-.419c-.02-.174-.071-.299-.153-.376-.081-.078-.2-.116-.357-.116l-.025-.001a.493.493 0 0 0-.396.2l-.001.001c-.098.133-.147.329-.15.587v.214c0 .262.046.461.14.598s.232.206.412.206c.165 0 .289-.037.372-.111s.136-.198.158-.371h.419c-.024.258-.12.46-.286.605zm2.472-.339c.082-.18.123-.388.123-.625v-.161c0-.215-.046-.419-.13-.603l.004.009a.927.927 0 0 0-.846-.553l-.034.001h.002-.018a.949.949 0 0 0-.511.148l.004-.002a.953.953 0 0 0-.352.408l-.002.006a1.465 1.465 0 0 0-.125.597v.03-.001.136c.001.232.043.436.126.613a.969.969 0 0 0 .352.409l.004.002c.145.09.321.143.51.143h.016-.001.018a.956.956 0 0 0 .511-.146l-.004.002c.155-.1.276-.24.35-.406l.002-.006zm-.451-1.368c.102.143.153.349.153.617v.126c0 .273-.05.48-.151.622a.492.492 0 0 1-.406.214l-.024-.001h.001-.017a.504.504 0 0 1-.414-.217l-.001-.002c-.103-.145-.155-.351-.155-.617v-.14c.002-.26.054-.462.156-.603a.497.497 0 0 1 .408-.214h.02-.001c.186 0 .33.072.43.214z"/>
    </symbol>
    <symbol id="icon-company2" viewBox="0 0 25 32">
      <path d="M10.531 1.806c.142 0 .294.013.446.026l.045.004c.734.052 1.463.162 2.179.329V.403a12.434 12.434 0 0 0-2.207-.356l-.042-.002c-.253-.02-.569-.036-.887-.044H9.78a18.342 18.342 0 0 0-4.643.611l.128-.029A18.25 18.25 0 0 0 .39 2.577l.085-.046v17.475a18.966 18.966 0 0 1 4.431-1.75l.135-.029a19.258 19.258 0 0 1 3.78-.586l.053-.002h.051c.216-.011.433-.017.655-.019v-1.79c-1.78.024-3.494.264-5.129.695l.147-.033c-.752.191-1.33.367-1.898.563l.167-.05-.623.211V3.591l.266-.128c1.89-.918 4.095-1.512 6.424-1.649l.047-.002.028-.001.029.001h-.001c.248-.013.497-.019.741-.019h.28c.129.003.258.006.388.014h.084zm3.102 1.801c.391.03.796.044 1.205.044a19.381 19.381 0 0 0 4.882-.639l-.135.03c1.589-.4 3.123-.998 4.564-1.781v17.163a17.874 17.874 0 0 1-4.665 1.92l-.127.028a18.052 18.052 0 0 1-4.51.581h-.116c-1.177 0-2.319-.148-3.409-.425l.095.021V3.274c.265.061.537.117.814.164.455.077.934.133 1.401.167zm8.734.133-.623.21c-.573.192-1.15.365-1.731.518-1.551.415-3.332.656-5.169.663h-.004c-.406 0-.78-.011-1.141-.034l-.497-.033v14.017l.427.038c.395.034.803.052 1.214.052a16.613 16.613 0 0 0 4.19-.553l-.116.026a16.994 16.994 0 0 0 3.286-1.189l-.102.045.266-.128V3.742zM1.684 25.977a.91.91 0 0 0-.695-.28h.002-.013c-.139 0-.272.028-.394.078l.007-.003a.916.916 0 0 0-.51.512l-.002.006a.997.997 0 0 0-.072.377v.01-.001 2.335c-.006.165.026.328.092.479.055.12.135.226.233.313a.814.814 0 0 0 .315.165l.006.001c.114.032.231.048.349.049a.972.972 0 0 0 .89-.604l.002-.006a.94.94 0 0 0 .075-.37v-.263h-.61V28.999a.515.515 0 0 1-.038.196l.001-.004a.367.367 0 0 1-.089.131.375.375 0 0 1-.125.066l-.003.001a.429.429 0 0 1-.128.022.314.314 0 0 1-.286-.124l-.001-.001a.545.545 0 0 1-.082-.288l.001-.027v.001-2.201a.74.74 0 0 1 .077-.329l-.002.004a.31.31 0 0 1 .261-.143l.039.002H.982h.009c.107 0 .202.051.263.13l.001.001c.068.09.104.2.101.313v.202h.604v-.246c0-.281-.106-.537-.28-.73l.001.001zm3.626-.027a1.048 1.048 0 0 0-1.381.001l.001-.001a.984.984 0 0 0-.235.321l-.002.006a1.089 1.089 0 0 0-.089.434v.019-.001 2.268c0 .156.033.303.092.437l-.003-.007c.055.12.136.227.237.313.09.084.197.151.316.195l.006.002a1.012 1.012 0 0 0 .735-.002l-.007.002c.121-.044.233-.111.33-.197a.958.958 0 0 0 .228-.307l.002-.006c.056-.127.089-.275.089-.43v-.03.001V26.707c0-.155-.033-.303-.092-.437l.003.007a1.027 1.027 0 0 0-.23-.327zm-.285 3.019.001.034a.406.406 0 0 1-.122.29.443.443 0 0 1-.575 0l.001.001a.394.394 0 0 1-.123-.287l.002-.039v.002-2.239l-.001-.034c0-.114.047-.216.122-.29a.443.443 0 0 1 .575 0l-.001-.001a.394.394 0 0 1 .123.287l-.002.039v-.002 2.239zm5.047 1V25.73h-.587l-.771 2.244h-.011l-.777-2.244h-.581v4.239h.606V27.39h.011l.593 1.823h.302l.598-1.823h.011v2.579h.606zm3.441-3.942a.843.843 0 0 0-.337-.23l-.006-.002a1.333 1.333 0 0 0-.419-.066h-.92v4.239h.604v-1.656h.311c.188.009.376-.031.545-.116a.89.89 0 0 0 .33-.32l.002-.004a1 1 0 0 0 .138-.363l.001-.006c.024-.16.035-.321.033-.482l.001-.07c0-.19-.022-.375-.063-.552l.003.016a.906.906 0 0 0-.223-.39zm-.312 1.292a.553.553 0 0 1-.057.224l.001-.003a.35.35 0 0 1-.154.148l-.002.001a.61.61 0 0 1-.253.054l-.034-.001h-.273v-1.441h.311l.029-.001c.088 0 .172.02.247.055l-.004-.002c.062.037.111.09.141.155l.001.002c.032.069.051.15.053.235v.283c0 .099.006.2 0 .291h-.006zm3.173-1.589h-.495l-.934 4.239h.604l.177-.911h.823l.177.911h.604l-.957-4.239zm-.557 2.751.297-1.537h.011l.296 1.537h-.604zm4.46-.197h-.011l-.912-2.554h-.581v4.239h.604V27.42h.012l.923 2.549h.568V25.73h-.604v2.554zm3.691-2.554-.486 1.685h-.012l-.486-1.685h-.64l.83 2.447v1.792h.604v-1.792l.83-2.447h-.64zM0 31.166h.291v.817h.198v-.817h.29v-.167H.001v.167zm2.447-.168-.381.984h.21l.081-.224h.392l.084.224h.215l-.391-.984h-.21zm-.031.595.134-.365.134.365h-.268zm2.45.027h.227v.127a.38.38 0 0 1-.234.083l-.017.001a.243.243 0 0 1-.192-.093v-.001a.408.408 0 0 1-.074-.235l.001-.023v.001c0-.219.095-.329.283-.329l.022-.001c.097 0 .178.067.2.157v.001l.195-.038c-.042-.192-.181-.289-.417-.289h-.013a.49.49 0 0 0-.332.128.492.492 0 0 0-.141.381v-.002l-.001.025a.53.53 0 0 0 .127.345l-.001-.001c.087.09.208.145.343.145l.033-.001h-.001.016c.155 0 .296-.06.401-.158v-.388h-.427v.166zm2.471-.622h-.199v.984h.69v-.167h-.49v-.817zm2.089 0h-.199v.984h.199v-.984zm2.043.658-.403-.657h-.193v.984h.185v-.643l.395.643h.198v-.984h-.182v.657zm1.846-.107h.49v-.167h-.49v-.216h.528v-.167h-.727v.984h.747v-.167h-.548v-.266zm4.477-.162h-.388v-.388h-.198v.984h.198v-.43h.388v.43h.198v-.984h-.198v.388zm1.857.162h.492v-.167h-.492v-.216h.529v-.167h-.727v.984h.746v-.167h-.548v-.266zm2.519 0c.171-.027.258-.117.258-.274a.23.23 0 0 0-.095-.219h-.001a.55.55 0 0 0-.249-.059l-.041.001h-.415v.984h.198v-.412h.039l.017-.001c.038 0 .075.008.108.023l-.002-.001a.204.204 0 0 1 .069.071l.001.001.215.313h.237l-.12-.192a.684.684 0 0 0-.216-.234l-.002-.002zm-.199-.136h-.146v-.247h.156a.538.538 0 0 1 .205.024l-.004-.001a.135.135 0 0 1 .033.046.135.135 0 0 1-.005.112v-.001a.128.128 0 0 1-.037.043.55.55 0 0 1-.162.024c-.014 0-.028 0-.041-.002h.002zm2.098.136h.49v-.167h-.49v-.216h.529v-.167h-.729v.984h.747v-.167h-.548v-.266z"/>
    </symbol>
    <symbol id="icon-company3" viewBox="0 0 34 32">
      <path d="M5.643 31.315c.025 0 .047.01.064.025l.166.159c-.13.128-.285.23-.458.299l-.009.003c-.21.076-.435.113-.663.108H4.71c-.212 0-.414-.037-.603-.105l.012.004a1.365 1.365 0 0 1-.47-.286l.001.001a1.277 1.277 0 0 1-.3-.432l-.003-.008a1.448 1.448 0 0 1-.106-.549v-.017.001-.031c0-.387.168-.735.435-.975l.001-.001c.142-.124.312-.222.499-.287.205-.069.422-.103.642-.101.204-.004.407.027.596.092.165.062.316.148.447.255l-.139.17a.199.199 0 0 1-.034.031h-.001a.1.1 0 0 1-.049.013h-.007a.14.14 0 0 1-.061-.018h.001l-.075-.045-.104-.058a1.166 1.166 0 0 0-.13-.053l-.009-.003a1.428 1.428 0 0 0-.424-.063h-.012.001H4.8c-.159 0-.311.028-.452.079l.009-.003c-.136.048-.26.121-.361.213a.987.987 0 0 0-.233.333l-.002.006a1.132 1.132 0 0 0-.085.435v.014-.001.017c0 .158.031.308.088.446l-.003-.008a.996.996 0 0 0 .231.338.933.933 0 0 0 .338.207l.007.002c.136.049.281.073.428.072.085.001.17-.004.253-.014.211-.022.399-.107.549-.234l-.001.001a.122.122 0 0 1 .079-.029zm4.798-.798c.003.192-.035.382-.112.561-.068.163-.174.311-.313.436s-.306.222-.491.286a2.03 2.03 0 0 1-1.278-.004l.014.004a1.461 1.461 0 0 1-.489-.288l.001.001a1.303 1.303 0 0 1-.313-.432l-.003-.008a1.454 1.454 0 0 1 .003-1.135l-.004.01c.071-.164.178-.314.316-.442.139-.12.305-.214.488-.276a2.003 2.003 0 0 1 1.278.004l-.014-.004c.185.065.351.163.49.287.137.125.243.273.314.435.077.181.115.372.112.565zm-.436 0v-.025c0-.153-.029-.3-.082-.434l.003.008a.947.947 0 0 0-.222-.338.972.972 0 0 0-.344-.211l-.007-.002a1.455 1.455 0 0 0-.928.003l.01-.003a.973.973 0 0 0-.351.213.895.895 0 0 0-.222.332l-.002.006a1.305 1.305 0 0 0 .002.912l-.003-.009c.101.26.309.459.568.547l.007.002a1.493 1.493 0 0 0 .929-.003l-.011.003c.136-.048.253-.12.352-.212h-.001a.945.945 0 0 0 .22-.332l.002-.006c.056-.145.082-.298.079-.451zm3.71.473.044.101c.017-.036.031-.069.048-.101.019-.039.037-.072.056-.103l-.002.004 1.062-1.677c.021-.029.039-.047.06-.052s.047-.009.072-.009h.328v2.727h-.372v-2.09l-.002-.047.002-.049v.002l-1.068 1.7c-.014.025-.035.047-.063.062s-.059.023-.091.023h-.06c-.032 0-.064-.007-.091-.022s-.049-.037-.062-.062l-1.099-1.711v2.189h-.359v-2.722h.329a.26.26 0 0 1 .074.01h-.002c.026.011.046.03.058.052l1.084 1.678c.019.028.037.06.052.093l.002.004zm3.995-.135v1.021h-.415v-2.723h.926c.175-.003.349.017.517.059.134.033.259.091.366.17.089.071.159.16.206.263l.002.004a.813.813 0 0 1 .071.335v.014-.001.01a.77.77 0 0 1-.299.61l-.002.001c-.104.08-.227.142-.361.178l-.007.002c-.14.04-.301.063-.467.063h-.035.002l-.503-.007zm0-.293h.514c.111 0 .218-.015.32-.043l-.008.002a.712.712 0 0 0 .235-.118l-.002.001a.526.526 0 0 0 .191-.406v-.004c.005-.076-.009-.151-.042-.222s-.082-.134-.145-.186a.882.882 0 0 0-.562-.146h-.5v1.122zm5.584 1.318h-.334a.158.158 0 0 1-.086-.025h.001a.17.17 0 0 1-.054-.062v-.001l-.282-.659H21.12l-.293.659a.153.153 0 0 1-.138.088h-.335l1.246-2.727h.432l1.263 2.727zm-2.057-1.013h1.172l-.494-1.11a1.684 1.684 0 0 1-.09-.244l-.003-.012-.048.143a1.05 1.05 0 0 1-.049.123l.003-.007-.49 1.108zm3.852-1.702a.175.175 0 0 1 .062.049l1.818 2.056v-2.117h.372v2.727h-.214a.194.194 0 0 1-.08-.017h.001a.24.24 0 0 1-.067-.05l-1.816-2.054.002.047-.002.049v-.002 2.027h-.372v-2.727h.226c.025 0 .049.005.071.014h-.001zm5.313 1.63v1.083h-.415v-1.083l-1.149-1.642h.381c.03 0 .058.009.081.024h-.001a.224.224 0 0 1 .055.06l.001.001.719 1.059c.05.07.092.15.125.235l.002.007.054-.117a.957.957 0 0 1 .073-.128l-.002.003.708-1.067a.37.37 0 0 1 .053-.058.14.14 0 0 1 .083-.027h.382l-1.151 1.65zM13.51 24.576c.181.02.364.036.548.051 2.803-1.089 5.174-2.873 6.817-5.126s2.485-4.878 2.421-7.546l-3.089-2.684c.628 2.84.334 5.776-.849 8.479s-3.208 5.067-5.849 6.827z"/>
      <path d="m12.407 24.451.083.014c2.822-1.754 4.974-4.203 6.176-7.03s1.402-5.904.571-8.83l-4.4-3.823c1.78 3.142 2.496 6.659 2.066 10.141s-1.989 6.786-4.496 9.528zm14.921-9.345c-.747 2.931-2.563 5.574-5.177 7.537a16.26 16.26 0 0 1-2.368 1.491l-.092.043c2.128-.544 4.085-1.504 5.718-2.809s2.9-2.917 3.703-4.714l-1.784-1.549z"/>
      <path d="m26.628 14.674-2.541-2.207c-.049 2.517-.872 4.976-2.385 7.123s-3.66 3.902-6.217 5.084h.012c.57 0 1.139-.03 1.705-.088 2.39-.848 4.502-2.196 6.147-3.926s2.771-3.785 3.278-5.985zM12.774 3.17 9.743.533c-2.709.91-5.04 2.509-6.686 4.588S.526 9.663.517 12.187c.01 2.789 1.09 5.495 3.07 7.69s4.745 3.754 7.859 4.43c2.78-2.942 4.407-6.579 4.646-10.38s-.924-7.569-3.319-10.757zM33.63 14.268c-.011-3.309-1.529-6.479-4.221-8.818s-6.342-3.658-10.15-3.668h-.03c-1.83 0-3.589.305-5.229.866l.114-.034 18.557 16.123c.605-1.313.958-2.85.96-4.468v-.001z"/>
    </symbol>
    <symbol id="icon-company4" viewBox="0 0 65 32">
      <path d="M10.016 9.983h-.002c-1.827 0-3.308 1.316-3.308 2.94v.002c0 1.624 1.481 2.94 3.308 2.94h.002c1.827 0 3.308-1.316 3.308-2.94v-.002c0-1.624-1.481-2.94-3.308-2.94zm24.418-.94c-.005-2.255-1.015-4.417-2.81-6.012S27.398.538 24.86.533c-2.538.004-4.972.902-6.767 2.497s-2.806 3.757-2.811 6.013v12.436s19.149-1.895 19.151-12.434v-.002zM0 25.562c.005 1.569.708 3.073 1.956 4.183s2.94 1.735 4.706 1.74c1.765-.005 3.457-.63 4.705-1.739s1.952-2.613 1.957-4.182V16.91S-.001 18.23-.001 25.562zm6.662 1.55c-.345 0-.682-.091-.969-.261s-.511-.413-.643-.696-.167-.595-.099-.896.233-.577.477-.794.555-.364.893-.424c.338-.06.689-.029 1.008.088s.591.316.783.571a1.4 1.4 0 0 1 .159 1.464l.004-.009c-.087.189-.216.36-.378.505s-.355.259-.567.338-.439.119-.669.119v-.006zm13.466-.854h-1.286v1.328h-.67v-3.25h2.116v.542h-1.446v.839h1.286v.54zm3.218-.223c0 .32-.057.6-.17.842s-.275.427-.487.558c-.21.131-.451.196-.723.196l-.042.001c-.516 0-.961-.303-1.167-.741l-.003-.008a1.883 1.883 0 0 1-.176-.801v-.031.002-.161c0-.32.057-.601.172-.844.207-.45.653-.757 1.171-.757l.043.001h-.002c.271 0 .511.065.721.196.211.129.374.316.489.56.116.242.174.523.174.841v.145zm-.678-.147c0-.341-.061-.6-.183-.777s-.296-.266-.522-.266l-.025-.001a.596.596 0 0 0-.493.261l-.001.002c-.122.174-.184.43-.185.768v.158c0 .332.061.589.183.772s.298.275.527.275l.025.001a.591.591 0 0 0 .491-.261l.001-.002c.121-.177.182-.434.183-.772v-.158zm2.85.846v-.018a.34.34 0 0 0-.134-.271l-.001-.001c-.089-.068-.25-.14-.482-.214a3.473 3.473 0 0 1-.57-.232l.019.009c-.369-.199-.554-.468-.554-.806 0-.176.049-.332.147-.469a.998.998 0 0 1 .419-.322l.007-.002c.186-.077.394-.116.625-.116s.439.042.621.127a.99.99 0 0 1 .42.351l.002.004a.919.919 0 0 1 .152.508v.014-.001h-.67l.001-.025a.438.438 0 0 0-.141-.321c-.094-.083-.225-.125-.395-.125-.164 0-.291.035-.382.105a.322.322 0 0 0-.136.263v.009c0 .106.053.194.158.266.107.071.264.138.471.201.381.115.659.257.833.426s.261.381.261.634l.001.031a.786.786 0 0 1-.317.631l-.002.002c-.213.159-.499.239-.859.239-.25 0-.478-.045-.683-.136a1.112 1.112 0 0 1-.469-.374l-.002-.003a.961.961 0 0 1-.161-.535v-.02.001h.672c0 .359.214.538.643.538a.624.624 0 0 0 .376-.098l-.003.002a.317.317 0 0 0 .134-.26v-.013.001zm3.574-1.855h-.996v2.708h-.67v-2.708h-.982v-.542h2.647v.542zm2.339 1.299h-1.286v.871h1.509v.538h-2.179v-3.25h2.174v.542h-1.504v.775h1.286v.525zm1.82.218h-.533v1.19h-.67v-3.25h1.208c.384 0 .68.086.888.257s.312.413.312.725l.001.037a.99.99 0 0 1-.148.523l.002-.004a.986.986 0 0 1-.429.351l-.006.002.703 1.328v.031h-.719l-.609-1.19zm-.534-.542h.54c.168 0 .298-.042.391-.127a.46.46 0 0 0 .139-.33l-.001-.026v.001l.001-.027c0-.13-.05-.248-.133-.336-.086-.088-.219-.132-.4-.132h-.538v.975zm4.058.587v1.145h-.67v-3.25h1.268c.244 0 .458.045.643.134.18.084.326.215.427.378l.002.004c.1.164.15.35.15.56 0 .318-.109.57-.328.754-.217.183-.519.275-.904.275h-.587zm0-.542h.598c.177 0 .312-.042.404-.125.094-.083.141-.202.141-.357 0-.159-.047-.288-.141-.386s-.223-.149-.388-.152h-.614v1.02zm4.237.279h-1.286v.871h1.509v.538h-2.179v-3.25h2.174v.542h-1.504v.775h1.286v.525zm3.107-1.299h-.995v2.708h-.67v-2.708h-.982v-.542h2.647v.542zm2.339 1.299h-1.286v.871h1.509v.538h-2.178v-3.25h2.174v.542h-1.504v.775h1.286v.525zm1.819.218h-.533v1.19h-.67v-3.25h1.208c.384 0 .68.086.888.257s.313.413.313.725l.001.037a.99.99 0 0 1-.148.523l.002-.004a.986.986 0 0 1-.429.351l-.006.002.703 1.328v.031h-.719l-.609-1.19zm-.533-.542h.54c.168 0 .298-.042.391-.127a.46.46 0 0 0 .139-.33l-.001-.026v.001l.001-.027c0-.13-.05-.248-.133-.336-.086-.088-.219-.132-.4-.132h-.538v.975zm3.935.88v-.018a.34.34 0 0 0-.134-.271l-.001-.001c-.089-.068-.25-.14-.482-.214a3.473 3.473 0 0 1-.57-.232l.019.009c-.369-.199-.554-.468-.554-.806 0-.176.049-.332.147-.469a.998.998 0 0 1 .419-.322l.007-.002c.186-.077.394-.116.625-.116s.439.042.621.127a.983.983 0 0 1 .42.351l.002.004a.919.919 0 0 1 .152.508v.014-.001h-.67l.001-.025a.434.434 0 0 0-.141-.321c-.094-.083-.225-.125-.395-.125-.164 0-.291.035-.382.105a.322.322 0 0 0-.136.263v.009c0 .106.053.194.158.266.107.071.264.138.471.201.381.115.658.257.833.426s.261.381.261.634l.001.031a.784.784 0 0 1-.318.631l-.002.002c-.213.159-.499.239-.859.239-.25 0-.478-.045-.683-.136a1.112 1.112 0 0 1-.469-.374l-.002-.003a.961.961 0 0 1-.161-.535v-.02.001h.672c0 .359.214.538.643.538l.036.001a.63.63 0 0 0 .34-.099l-.003.002a.317.317 0 0 0 .134-.26v-.013.001z"/>
    </symbol>
    <symbol id="icon-company5" viewBox="0 0 43 32">
      <path d="M3.239 26.373c.155.173.25.402.25.654v.012-.001c.008.158-.022.315-.089.46s-.169.275-.298.38a1.769 1.769 0 0 1-1.13.307H.001V23.97h1.937c.382-.023.761.076 1.073.28.125.096.224.217.289.354s.095.286.086.435l.001.04a.92.92 0 0 1-.227.606l.001-.001a1.06 1.06 0 0 1-.582.328l-.007.001c.262.044.499.172.668.36zM.92 25.737h.828l.06.002a.83.83 0 0 0 .469-.144l-.003.002c.062-.052.111-.116.141-.187s.043-.148.036-.225c.006-.076-.007-.153-.037-.224s-.078-.135-.138-.188a.848.848 0 0 0-.545-.142H.92v1.106zm1.435 1.616c.066-.053.119-.119.153-.193s.049-.155.043-.235c.005-.081-.01-.163-.045-.238s-.088-.142-.155-.195a.902.902 0 0 0-.564-.152H.922v1.159h.879a.92.92 0 0 0 .559-.148l-.004.002zm4.842.832L6.12 26.538h-.405v1.647h-.927V23.97h1.754c.442-.028.879.1 1.221.358.245.229.393.53.417.85s-.078.637-.287.894a1.461 1.461 0 0 1-.829.427l-.008.001 1.147 1.684H7.195zm-1.482-2.222h.758c.526 0 .789-.213.789-.638l.001-.037a.583.583 0 0 0-.194-.435h-.001a.862.862 0 0 0-.599-.171h-.764l.009 1.283zm6.547 1.374h-1.847l-.326.848h-.972l1.696-4.168h1.05l1.689 4.168h-.972l-.319-.848zm-.247-.639-.675-1.779-.675 1.779h1.349zm6.587 1.487h-.92l-2.062-2.867v2.867h-.918V23.97h.918l2.062 2.883V23.97h.92v4.215zm5.25-1.009c-.19.318-.48.577-.832.743-.4.185-.845.276-1.293.266H20.09V23.97h1.637c.448-.011.891.078 1.293.259.352.163.642.419.832.735.189.343.288.722.288 1.106s-.099.763-.288 1.106zm-1.053-.101c.263-.28.407-.637.407-1.006s-.144-.726-.407-1.006a1.683 1.683 0 0 0-1.157-.357h-.634v2.729h.639a1.69 1.69 0 0 0 1.155-.361l-.004.003zM12.838.522s11.873 4.104 11.621 10.043V20.61s-11.864-4.106-11.617-10.045L12.837.522zm22.199 17.737c2.242-1.413 4.836-2.288 7.544-2.545v-3.145c-3.12 1.101-5.766 3.097-7.544 5.69z"/>
      <path d="M33.69 19.206c1.835-3.384 5.017-5.995 8.891-7.296V2.849S25.672 8.695 26.03 17.153v14.302s.753-.262 1.939-.752c0-.457 0-.918.054-1.382.35-3.926 2.389-7.565 5.668-10.115z"/>
      <path d="M32.081 24.52c.099-1.081.309-2.076.619-3.024l-.027.096c-2.042 2.203-3.278 4.936-3.536 7.815-.025.272-.038.544-.045.824a47.523 47.523 0 0 0 3.524-1.702l-.272.133a13.229 13.229 0 0 1-.318-2.92c0-.43.02-.855.059-1.275l-.004.054zm.673.051a13.013 13.013 0 0 0 .224 3.835l-.015-.084c4.62-2.531 9.811-6.442 9.611-11.168v-.412c-3.301.338-6.389 1.659-8.79 3.76-.53 1.19-.896 2.57-1.026 4.018l-.004.051z"/>
    </symbol>
    <symbol id="icon-company6" viewBox="0 0 67 32">
      <path d="M33.724 15.224a2.08 2.08 0 0 1-.429-1.42v.006-2.05c0-.628.142-1.106.428-1.433s.775-.489 1.469-.488c.652 0 1.115.139 1.389.417.299.355.444.789.411 1.226v.482h-1.167v-.488l.001-.064c0-.146-.013-.289-.037-.429l.002.015a.467.467 0 0 0-.166-.283l-.001-.001a.674.674 0 0 0-.375-.113l-.05.002h.002a.706.706 0 0 0-.447.118l.003-.002a.543.543 0 0 0-.192.309l-.001.004a2.368 2.368 0 0 0-.046.469v.04-.002 2.488c-.018.24.033.48.15.699.058.074.139.132.233.169s.198.05.301.039a.63.63 0 0 0 .415-.114l-.002.001a.508.508 0 0 0 .174-.299v-.003c.027-.165.039-.332.036-.498v-.505h1.167v.461c.033.456-.109.909-.403 1.289-.268.305-.725.457-1.396.457s-1.179-.163-1.466-.501zm4.859.021c-.295-.319-.442-.784-.442-1.4v-2.157c0-.609.147-1.07.442-1.383s.788-.469 1.478-.467c.686 0 1.177.156 1.471.467.295.313.444.774.444 1.383v2.157c0 .609-.15 1.076-.449 1.397s-.788.482-1.466.482c-.679 0-1.181-.163-1.478-.48zm2.022-.518c.106-.2.154-.419.14-.638v-2.641a1.166 1.166 0 0 0-.141-.632l.003.006c-.059-.075-.142-.135-.238-.172s-.203-.05-.308-.037c-.105-.013-.212 0-.308.037s-.18.096-.24.172a1.132 1.132 0 0 0-.14.629v-.003 2.653c-.015.219.033.439.14.638a.732.732 0 0 0 .246.158.805.805 0 0 0 .606-.002l-.006.002a.738.738 0 0 0 .246-.158v-.012zm2.775-4.826h1.256l.945 3.979.966-3.979h1.222l.123 5.743h-.904l-.097-3.992-.932 3.992h-.725l-.966-4.006-.089 4.006h-.913l.114-5.743zm5.921 0h1.957c1.127 0 1.691.544 1.691 1.631 0 1.041-.593 1.561-1.78 1.56h-.667v2.553h-1.208l.007-5.743zm1.672 2.455c.119.013.24.004.355-.028s.22-.084.309-.154a.922.922 0 0 0 .173-.654v.004l.001-.063c0-.163-.022-.32-.062-.47l.003.013c-.017-.057-.047-.111-.089-.158s-.093-.086-.153-.116a1.244 1.244 0 0 0-.542-.092h-.466v1.716h.469zm3.718-2.455h1.297l1.331 5.743h-1.126l-.263-1.324h-1.157l-.271 1.324h-1.143l1.331-5.743zm1.109 3.754-.452-2.411-.452 2.411h.903zm2.595-3.754h.846l1.619 3.276V9.901h1.003v5.743h-.804l-1.628-3.42v3.42h-1.036l.002-5.743zm5.814 3.554-1.346-3.546h1.133l.821 2.277.771-2.277h1.109l-1.329 3.546v2.19h-1.16v-2.19zm-28.62 4.701v.3h-.986v2.334h-.413v-2.334h-.99v-.3h2.389zm3.09 2.634h-.328a.13.13 0 0 1-.08-.026.137.137 0 0 1-.053-.059v-.001l-.285-.626h-1.367l-.285.626a.168.168 0 0 1-.044.071.15.15 0 0 1-.084.025h-.325l1.208-2.634h.42l1.222 2.624zm-2-.978h1.14l-.483-1.072a1.577 1.577 0 0 1-.086-.236l-.003-.012c-.017.05-.031.098-.046.14l-.044.11-.478 1.07zm4.083.72c.076.003.151.003.227 0 .136-.014.261-.042.379-.083l-.012.004c.053-.019.106-.042.162-.065v-.592h-.483c-.012.001-.024-.001-.035-.005s-.021-.009-.03-.016a.063.063 0 0 1-.024-.048v-.202h.937v1.01a1.831 1.831 0 0 1-.497.212l-.013.003c-.099.025-.2.043-.302.054a3.495 3.495 0 0 1-.353.017h-.016c-.212 0-.416-.036-.606-.102l.013.004a1.484 1.484 0 0 1-.485-.277l.002.002a1.305 1.305 0 0 1-.309-.409l-.003-.008a1.3 1.3 0 0 1-.111-.529v-.019.001-.019c0-.192.04-.375.113-.541l-.003.009c.069-.156.176-.298.312-.417.138-.119.302-.212.483-.273.207-.067.426-.1.647-.098.112 0 .225.008.336.023.198.029.377.089.539.175l-.009-.004c.074.041.144.087.21.138l-.116.163c-.009.015-.023.027-.039.036s-.036.014-.055.014a.163.163 0 0 1-.076-.021h.001a1.18 1.18 0 0 1-.125-.067l.007.004a.918.918 0 0 0-.155-.069l-.007-.002a1.47 1.47 0 0 0-.489-.082l-.042.001h.002-.018c-.16 0-.314.027-.458.076l.01-.003a1.03 1.03 0 0 0-.356.21l.001-.001a.927.927 0 0 0-.223.322l-.002.006a1.225 1.225 0 0 0 .003.886l-.003-.008a.95.95 0 0 0 .241.331l.001.001c.099.09.219.162.353.209.154.046.316.063.478.052zm3.85-.042h1.319v.3h-1.722v-2.634h.413l-.01 2.334zm2.692.3h-.413v-2.634h.413v2.634zm1.536-2.622a.189.189 0 0 1 .063.048l1.766 1.986-.002-.047.002-.049v.002-1.962h.36v2.645h-.222a.191.191 0 0 1-.076-.016h.001a.23.23 0 0 1-.065-.05l-1.764-1.984v2.048h-.345v-2.634h.215c.023 0 .046.004.068.012zm5.23-.012v.29h-1.464v.87h1.186v.279h-1.186v.899h1.464v.29h-1.889v-2.628h1.889zM10.782 1.888l18.343 4.497v15.757l-18.343-4.494V1.889zM9.605.545v17.867l20.694 5.074V5.621L9.605.545z"/>
      <path d="M20.696 31.781 0 26.702V8.836l20.696 5.076V31.78z"/>
      <path d="m9.948 1.686 18.104 4.44-7.699 6.649L2.247 8.333l7.702-6.647zM9.605.545 0 8.837l20.696 5.076 9.603-8.292L9.605.545zm12.256 30.231 8.438-7.287-8.438-2.071v9.358z"/>
    </symbol>
    <symbol id="icon-instagram" viewBox="0 0 32 32">
      <path d="M31.969 9.408c-.075-1.7-.35-2.869-.744-3.882a7.847 7.847 0 0 0-1.85-2.837l-.001-.001A7.88 7.88 0 0 0 26.596.862l-.054-.018C25.523.45 24.36.175 22.66.1 20.947.019 20.403 0 16.059 0s-4.888.019-6.595.094c-1.7.075-2.869.35-3.882.744a7.845 7.845 0 0 0-2.837 1.849l-.001.001A7.89 7.89 0 0 0 .918 5.466L.9 5.52C.506 6.539.231 7.702.156 9.402c-.081 1.713-.1 2.257-.1 6.601s.019 4.888.094 6.595c.075 1.7.35 2.869.744 3.882a7.941 7.941 0 0 0 1.849 2.837l.001.001a7.89 7.89 0 0 0 2.778 1.826l.054.018c1.019.394 2.182.669 3.882.744 1.706.075 2.25.094 6.595.094s4.888-.019 6.595-.094c1.7-.075 2.869-.35 3.882-.744a8.233 8.233 0 0 0 4.663-4.627l.019-.055c.394-1.019.669-2.182.744-3.882.075-1.707.094-2.251.094-6.595s-.006-4.888-.081-6.595zm-2.882 13.065c-.069 1.563-.331 2.407-.55 2.969a5.334 5.334 0 0 1-3.002 3.025l-.036.013c-.563.219-1.413.481-2.969.55-1.688.075-2.194.094-6.464.094s-4.782-.019-6.464-.094c-1.563-.069-2.407-.331-2.969-.55a4.947 4.947 0 0 1-1.837-1.193l-.001-.001a4.988 4.988 0 0 1-1.183-1.804l-.011-.034c-.219-.563-.481-1.413-.55-2.969-.075-1.688-.094-2.194-.094-6.464s.019-4.782.094-6.464c.069-1.563.331-2.407.55-2.969a4.885 4.885 0 0 1 1.198-1.836l.002-.002a4.988 4.988 0 0 1 1.804-1.183l.034-.011c.563-.219 1.413-.481 2.969-.55 1.688-.075 2.194-.094 6.464-.094 4.276 0 4.782.019 6.464.094 1.563.069 2.407.331 2.969.55a4.947 4.947 0 0 1 1.837 1.193l.001.001a4.988 4.988 0 0 1 1.183 1.804l.011.034c.219.563.481 1.413.55 2.969.075 1.688.094 2.194.094 6.464s-.019 4.77-.094 6.458z"/>
      <path d="M16.059 7.783c-4.538 0-8.22 3.682-8.22 8.22s3.682 8.22 8.22 8.22 8.22-3.682 8.22-8.22-3.682-8.22-8.22-8.22zm0 13.552a5.334 5.334 0 0 1-.006-10.664h.005a5.334 5.334 0 0 1 .006 10.664h-.005zM26.524 7.458a1.919 1.919 0 1 1-3.838 0 1.919 1.919 0 1 1 3.838 0z"/>
    </symbol>
    <symbol id="icon-twitter" viewBox="0 0 32 32">
      <path d="M32 6.078c-1.19.522-2.458.868-3.78 1.036a6.555 6.555 0 0 0 2.873-3.58l.013-.046a12.858 12.858 0 0 1-4.076 1.574l-.084.014A6.559 6.559 0 0 0 22.154 3c-3.632 0-6.556 2.948-6.556 6.562 0 .52.044 1.02.152 1.496-5.454-.266-10.28-2.88-13.522-6.862a6.533 6.533 0 0 0-.898 3.316 6.56 6.56 0 0 0 2.891 5.437l.023.015a6.454 6.454 0 0 1-2.997-.825l.033.017v.072c0 3.188 2.274 5.836 5.256 6.446a6.408 6.408 0 0 1-1.669.216h-.054.003a5.842 5.842 0 0 1-1.279-.118l.037.006c.85 2.598 3.262 4.508 6.13 4.57a13.098 13.098 0 0 1-8.12 2.798h-.015.001c-.538 0-1.054-.024-1.57-.09C2.826 27.902 6.287 29 10.004 29h.063-.003c12.072 0 18.672-10 18.672-18.668 0-.29-.01-.57-.024-.848a13.186 13.186 0 0 0 3.258-3.359l.03-.047z"/>
    </symbol>
    <symbol id="icon-facebook" viewBox="0 0 32 32">
      <path d="M21.329 5.313h2.921V.225C23.746.156 22.013 0 19.994 0c-4.212 0-7.097 2.649-7.097 7.519V12H8.249v5.688h4.648V32h5.699V17.689h4.46l.708-5.688h-5.169V8.082c.001-1.644.444-2.769 2.735-2.769z"/>
    </symbol>
    <symbol id="icon-linkedin" viewBox="0 0 32 32">
      <path d="M31.992 32v-.001H32V20.263c0-5.741-1.236-10.164-7.948-10.164-3.227 0-5.392 1.771-6.276 3.449h-.093v-2.913h-6.364v21.364h6.627V21.42c0-2.785.528-5.479 3.977-5.479 3.399 0 3.449 3.179 3.449 5.657v10.401h6.62zM.528 10.636h6.635V32H.528V10.636zM3.843 0C1.722 0 0 1.721 0 3.843s1.721 3.879 3.843 3.879c2.121 0 3.843-1.757 3.843-3.879A3.846 3.846 0 0 0 3.843 0z"/>
    </symbol>
  </defs>
</svg>
