<!-- Generated by IcoMoon.io -->
<svg version="1.1" xmlns="http://www.w3.org/2000/svg" width="43" height="32" viewBox="0 0 43 32">
<title>brand</title>
<path d="M3.239 26.373c0.155 0.173 0.25 0.402 0.25 0.654 0 0.004-0 0.008-0 0.012v-0.001c0.008 0.158-0.022 0.315-0.089 0.46s-0.169 0.275-0.298 0.38c-0.282 0.195-0.631 0.311-1.007 0.311-0.041 0-0.082-0.001-0.123-0.004l0.006 0h-1.977v-4.215h1.937c0.382-0.023 0.761 0.076 1.073 0.28 0.125 0.096 0.224 0.217 0.289 0.354s0.095 0.286 0.086 0.435c0.001 0.012 0.001 0.026 0.001 0.040 0 0.232-0.086 0.444-0.227 0.606l0.001-0.001c-0.151 0.166-0.354 0.284-0.582 0.328l-0.007 0.001c0.262 0.044 0.499 0.172 0.668 0.36zM0.92 25.737h0.828c0.018 0.001 0.039 0.002 0.060 0.002 0.174 0 0.335-0.053 0.469-0.144l-0.003 0.002c0.062-0.052 0.111-0.116 0.141-0.187s0.043-0.148 0.036-0.225c0.006-0.076-0.007-0.153-0.037-0.224s-0.078-0.135-0.138-0.188c-0.134-0.091-0.299-0.145-0.477-0.145-0.023 0-0.046 0.001-0.068 0.003l0.003-0h-0.814v1.106zM2.355 27.353c0.066-0.053 0.119-0.119 0.153-0.193s0.049-0.155 0.043-0.235c0.005-0.081-0.010-0.163-0.045-0.238s-0.088-0.142-0.155-0.195c-0.142-0.096-0.317-0.154-0.505-0.154-0.020 0-0.040 0.001-0.059 0.002l0.003-0h-0.868v1.159h0.879c0.016 0.001 0.035 0.002 0.053 0.002 0.187 0 0.361-0.055 0.506-0.15l-0.004 0.002zM7.197 28.185l-1.077-1.647h-0.405v1.647h-0.927v-4.215h1.754c0.442-0.028 0.879 0.1 1.221 0.358 0.245 0.229 0.393 0.53 0.417 0.85s-0.078 0.637-0.287 0.894c-0.218 0.224-0.506 0.378-0.829 0.427l-0.008 0.001 1.147 1.684h-1.008zM5.715 25.963h0.758c0.526 0 0.789-0.213 0.789-0.638 0.001-0.011 0.001-0.024 0.001-0.037 0-0.173-0.075-0.328-0.194-0.435l-0.001-0c-0.144-0.109-0.325-0.174-0.522-0.174-0.026 0-0.052 0.001-0.077 0.003l0.003-0h-0.767l0.009 1.283zM12.262 27.337h-1.847l-0.326 0.848h-0.972l1.696-4.168h1.050l1.689 4.168h-0.972l-0.319-0.848zM12.015 26.698l-0.675-1.779-0.675 1.779h1.349zM18.602 28.185h-0.92l-2.062-2.867v2.867h-0.918v-4.215h0.918l2.062 2.883v-2.883h0.92v4.215zM23.852 27.176c-0.19 0.318-0.48 0.577-0.832 0.743-0.4 0.185-0.845 0.276-1.293 0.266h-1.637v-4.215h1.637c0.448-0.011 0.891 0.078 1.293 0.259 0.352 0.163 0.642 0.419 0.832 0.735 0.189 0.343 0.288 0.722 0.288 1.106s-0.099 0.763-0.288 1.106zM22.799 27.075c0.263-0.28 0.407-0.637 0.407-1.006s-0.144-0.726-0.407-1.006c-0.285-0.225-0.649-0.361-1.045-0.361-0.038 0-0.075 0.001-0.112 0.004l0.005-0h-0.639v2.729h0.639c0.031 0.002 0.068 0.003 0.104 0.003 0.397 0 0.762-0.136 1.051-0.364l-0.004 0.003zM12.838 0.522s11.873 4.104 11.621 10.043v10.045s-11.864-4.106-11.617-10.045l-0.005-10.043zM35.037 18.259c2.242-1.413 4.836-2.288 7.544-2.545v-3.145c-3.12 1.101-5.766 3.097-7.544 5.69z"></path>
<path d="M33.69 19.206c1.835-3.384 5.017-5.995 8.891-7.296v-9.061s-16.909 5.846-16.551 14.304v14.302s0.753-0.262 1.939-0.752c0-0.457 0-0.918 0.054-1.382 0.35-3.926 2.389-7.565 5.668-10.115z"></path>
<path d="M32.081 24.52c0.099-1.081 0.309-2.076 0.619-3.024l-0.027 0.096c-2.042 2.203-3.278 4.936-3.536 7.815-0.025 0.272-0.038 0.544-0.045 0.824 1.41-0.617 2.478-1.142 3.524-1.702l-0.272 0.133c-0.202-0.878-0.318-1.885-0.318-2.92 0-0.43 0.020-0.855 0.059-1.275l-0.004 0.054zM32.754 24.571c-0.033 0.348-0.052 0.752-0.052 1.161 0 0.917 0.095 1.811 0.276 2.674l-0.015-0.084c4.62-2.531 9.811-6.442 9.611-11.168v-0.412c-3.301 0.338-6.389 1.659-8.79 3.76-0.53 1.19-0.896 2.57-1.026 4.018l-0.004 0.051z"></path>
</svg>
