<!-- Generated by IcoMoon.io -->
<svg version="1.1" xmlns="http://www.w3.org/2000/svg" width="25" height="32" viewBox="0 0 25 32">
<title>company-flag</title>
<path d="M10.531 1.806c0.142 0 0.294 0.013 0.446 0.026l0.045 0.004c0.734 0.052 1.463 0.162 2.179 0.329v-1.762c-0.652-0.171-1.42-0.299-2.207-0.356l-0.042-0.002c-0.253-0.020-0.569-0.036-0.887-0.044l-0.022-0h-0.263c-1.607 0.006-3.162 0.218-4.643 0.611l0.128-0.029c-1.816 0.46-3.411 1.128-4.875 1.994l0.085-0.046v17.475c1.312-0.729 2.832-1.338 4.431-1.75l0.135-0.029c1.123-0.299 2.434-0.509 3.78-0.586l0.053-0.002h0.051c0.216-0.011 0.433-0.017 0.655-0.019v-1.79c-1.78 0.024-3.494 0.264-5.129 0.695l0.147-0.033c-0.752 0.191-1.33 0.367-1.898 0.563l0.167-0.050-0.623 0.211v-13.625l0.266-0.128c1.89-0.918 4.095-1.512 6.424-1.649l0.047-0.002c0.008-0 0.018-0.001 0.028-0.001s0.020 0 0.029 0.001l-0.001-0c0.248-0.013 0.497-0.019 0.741-0.019h0.28c0.129 0.003 0.258 0.006 0.388 0.014h0.084zM13.633 3.607c0.391 0.030 0.796 0.044 1.205 0.044 1.689-0.006 3.324-0.228 4.882-0.639l-0.135 0.030c1.589-0.4 3.123-0.998 4.564-1.781v17.163c-1.38 0.82-2.975 1.488-4.665 1.92l-0.127 0.028c-1.353 0.362-2.908 0.573-4.51 0.581l-0.005 0c-0.033 0-0.072 0-0.111 0-1.177 0-2.319-0.148-3.409-0.425l0.095 0.021v-17.275c0.265 0.061 0.537 0.117 0.814 0.164 0.455 0.077 0.934 0.133 1.401 0.167zM22.367 3.74l-0.623 0.21c-0.573 0.192-1.15 0.365-1.731 0.518-1.551 0.415-3.332 0.656-5.169 0.663h-0.004c-0.406 0-0.78-0.011-1.141-0.034l-0.497-0.033v14.017l0.427 0.038c0.395 0.034 0.803 0.052 1.214 0.052 1.45-0.007 2.853-0.198 4.19-0.553l-0.116 0.026c1.221-0.31 2.281-0.702 3.286-1.189l-0.102 0.045 0.266-0.128v-13.63zM1.684 25.977c-0.166-0.173-0.4-0.281-0.658-0.281-0.012 0-0.024 0-0.037 0.001l0.002-0c-0.004-0-0.009-0-0.013-0-0.139 0-0.272 0.028-0.394 0.078l0.007-0.003c-0.236 0.096-0.419 0.281-0.51 0.512l-0.002 0.006c-0.046 0.112-0.072 0.241-0.072 0.377 0 0.003 0 0.007 0 0.010v-0.001 2.335c-0.006 0.165 0.026 0.328 0.092 0.479 0.055 0.12 0.135 0.226 0.233 0.313 0.089 0.076 0.197 0.133 0.315 0.165l0.006 0.001c0.114 0.032 0.231 0.048 0.349 0.049 0.402-0.004 0.746-0.252 0.89-0.604l0.002-0.006c0.047-0.109 0.075-0.236 0.075-0.37 0-0.001 0-0.001 0-0.002v0-0.261h-0.61v0.208c0 0.005 0 0.010 0 0.016 0 0.069-0.013 0.135-0.038 0.196l0.001-0.004c-0.021 0.052-0.051 0.095-0.089 0.131l-0 0c-0.036 0.029-0.079 0.052-0.125 0.066l-0.003 0.001c-0.038 0.013-0.082 0.021-0.128 0.022h-0c-0.010 0.001-0.022 0.002-0.034 0.002-0.103 0-0.194-0.049-0.252-0.126l-0.001-0.001c-0.051-0.082-0.082-0.181-0.082-0.288 0-0.009 0-0.018 0.001-0.027l-0 0.001v-2.177c-0-0.007-0-0.016-0-0.024 0-0.118 0.028-0.23 0.077-0.329l-0.002 0.004c0.056-0.087 0.152-0.143 0.261-0.143 0.013 0 0.026 0.001 0.039 0.002l-0.002-0c0.003-0 0.006-0 0.009-0 0.107 0 0.202 0.051 0.263 0.13l0.001 0.001c0.068 0.090 0.104 0.2 0.101 0.313v0.202h0.604v-0.238c0-0.002 0-0.005 0-0.008 0-0.281-0.106-0.537-0.28-0.73l0.001 0.001zM5.31 25.95c-0.184-0.16-0.425-0.258-0.69-0.258s-0.506 0.098-0.691 0.259l0.001-0.001c-0.099 0.090-0.179 0.198-0.235 0.321l-0.002 0.006c-0.056 0.128-0.089 0.277-0.089 0.434 0 0.006 0 0.013 0 0.019v-0.001 2.239c-0 0.009-0 0.019-0 0.029 0 0.156 0.033 0.303 0.092 0.437l-0.003-0.007c0.055 0.12 0.136 0.227 0.237 0.313 0.090 0.084 0.197 0.151 0.316 0.195l0.006 0.002c0.108 0.042 0.233 0.067 0.364 0.067s0.256-0.024 0.371-0.069l-0.007 0.002c0.121-0.044 0.233-0.111 0.33-0.197 0.096-0.086 0.173-0.19 0.228-0.307l0.002-0.006c0.056-0.127 0.089-0.275 0.089-0.43 0-0.010-0-0.020-0-0.030l0 0.001v-2.239c0-0.007 0-0.014 0-0.022 0-0.155-0.033-0.303-0.092-0.437l0.003 0.007c-0.057-0.128-0.135-0.236-0.23-0.327l-0-0zM5.025 28.969c0.001 0.010 0.001 0.022 0.001 0.034 0 0.114-0.047 0.216-0.122 0.29l-0 0c-0.077 0.065-0.177 0.105-0.287 0.105s-0.21-0.040-0.288-0.105l0.001 0.001c-0.076-0.072-0.123-0.174-0.123-0.287 0-0.013 0.001-0.026 0.002-0.039l-0 0.002v-2.239c-0.001-0.010-0.001-0.022-0.001-0.034 0-0.114 0.047-0.216 0.122-0.29l0-0c0.077-0.065 0.177-0.105 0.287-0.105s0.21 0.040 0.288 0.105l-0.001-0.001c0.076 0.072 0.123 0.174 0.123 0.287 0 0.013-0.001 0.026-0.002 0.039l0-0.002v2.239zM10.072 29.969v-4.239h-0.587l-0.771 2.244h-0.011l-0.777-2.244h-0.581v4.239h0.606v-2.579h0.011l0.593 1.823h0.302l0.598-1.823h0.011v2.579h0.606zM13.513 26.027c-0.092-0.103-0.207-0.182-0.337-0.23l-0.006-0.002c-0.125-0.042-0.27-0.066-0.419-0.066-0.007 0-0.014 0-0.021 0h-0.899v4.239h0.604v-1.656h0.311c0.188 0.009 0.376-0.031 0.545-0.116 0.139-0.078 0.251-0.188 0.33-0.32l0.002-0.004c0.067-0.106 0.115-0.23 0.138-0.363l0.001-0.006c0.024-0.16 0.035-0.321 0.033-0.482 0.001-0.021 0.001-0.046 0.001-0.070 0-0.19-0.022-0.375-0.063-0.552l0.003 0.016c-0.043-0.153-0.12-0.284-0.223-0.39l0 0zM13.201 27.319c-0.003 0.081-0.024 0.157-0.057 0.224l0.001-0.003c-0.035 0.065-0.089 0.116-0.154 0.148l-0.002 0.001c-0.074 0.034-0.161 0.054-0.253 0.054-0.011 0-0.023-0-0.034-0.001l0.002 0h-0.275v-1.441h0.311c0.009-0 0.019-0.001 0.029-0.001 0.088 0 0.172 0.020 0.247 0.055l-0.004-0.002c0.062 0.037 0.111 0.090 0.141 0.155l0.001 0.002c0.032 0.069 0.051 0.15 0.053 0.235l0 0.001v0.282c0 0.099 0.006 0.2 0 0.291h-0.006zM16.374 25.73h-0.495l-0.934 4.239h0.604l0.177-0.911h0.823l0.177 0.911h0.604l-0.957-4.239zM15.817 28.481l0.297-1.537h0.011l0.296 1.537h-0.604zM20.277 28.284h-0.011l-0.912-2.554h-0.581v4.239h0.604v-2.549h0.012l0.923 2.549h0.568v-4.239h-0.604v2.554zM23.968 25.73l-0.486 1.685h-0.012l-0.486-1.685h-0.64l0.83 2.447v1.792h0.604v-1.792l0.83-2.447h-0.64zM0 31.166h0.291v0.817h0.198v-0.817h0.29v-0.167h-0.778v0.167zM2.447 30.998l-0.381 0.984h0.21l0.081-0.224h0.392l0.084 0.224h0.215l-0.391-0.984h-0.21zM2.416 31.593l0.134-0.365 0.134 0.365h-0.268zM4.866 31.62h0.227v0.127c-0.064 0.051-0.145 0.082-0.234 0.083h-0c-0.005 0-0.011 0.001-0.017 0.001-0.078 0-0.147-0.036-0.192-0.093l-0-0.001c-0.046-0.065-0.074-0.147-0.074-0.235 0-0.008 0-0.016 0.001-0.023l-0 0.001c0-0.219 0.095-0.329 0.283-0.329 0.006-0.001 0.014-0.001 0.022-0.001 0.097 0 0.178 0.067 0.2 0.157l0 0.001 0.195-0.038c-0.042-0.192-0.181-0.289-0.417-0.289-0.004-0-0.008-0-0.013-0-0.128 0-0.244 0.048-0.332 0.128l0-0c-0.088 0.089-0.142 0.212-0.142 0.347 0 0.011 0 0.023 0.001 0.034l-0-0.002c-0 0.007-0.001 0.016-0.001 0.025 0 0.132 0.048 0.252 0.127 0.345l-0.001-0.001c0.087 0.090 0.208 0.145 0.343 0.145 0.011 0 0.022-0 0.033-0.001l-0.001 0c0.005 0 0.010 0 0.016 0 0.155 0 0.296-0.060 0.401-0.158l-0 0v-0.388h-0.427v0.166zM7.337 30.998h-0.199v0.984h0.69v-0.167h-0.49v-0.817zM9.426 30.998h-0.199v0.984h0.199v-0.984zM11.469 31.656l-0.403-0.657h-0.193v0.984h0.185v-0.643l0.395 0.643h0.198v-0.984h-0.182v0.657zM13.315 31.549h0.49v-0.167h-0.49v-0.216h0.528v-0.167h-0.727v0.984h0.747v-0.167h-0.548v-0.266zM17.792 31.387h-0.388v-0.388h-0.198v0.984h0.198v-0.43h0.388v0.43h0.198v-0.984h-0.198v0.388zM19.649 31.549h0.492v-0.167h-0.492v-0.216h0.529v-0.167h-0.727v0.984h0.746v-0.167h-0.548v-0.266zM22.168 31.549c0.171-0.027 0.258-0.117 0.258-0.274 0.001-0.008 0.002-0.018 0.002-0.028 0-0.078-0.038-0.148-0.097-0.191l-0.001-0c-0.073-0.037-0.158-0.059-0.249-0.059-0.014 0-0.027 0-0.041 0.001l0.002-0h-0.417v0.984h0.198v-0.412h0.039c0.005-0 0.011-0.001 0.017-0.001 0.038 0 0.075 0.008 0.108 0.023l-0.002-0.001c0.029 0.018 0.052 0.042 0.069 0.071l0.001 0.001 0.215 0.313h0.237l-0.12-0.192c-0.054-0.096-0.128-0.175-0.216-0.234l-0.002-0.002zM21.969 31.413h-0.146v-0.247h0.156c0.013-0.001 0.027-0.002 0.042-0.002 0.057 0 0.112 0.009 0.163 0.026l-0.004-0.001c0.014 0.013 0.026 0.029 0.033 0.046 0.006 0.015 0.010 0.032 0.010 0.050 0 0.022-0.005 0.043-0.015 0.062l0-0.001c-0.009 0.017-0.022 0.032-0.037 0.043l-0 0c-0.048 0.015-0.104 0.024-0.162 0.024-0.014 0-0.028-0-0.041-0.002l0.002 0zM24.067 31.549h0.49v-0.167h-0.49v-0.216h0.529v-0.167h-0.729v0.984h0.747v-0.167h-0.548v-0.266z"></path>
</svg>
