<!-- Generated by IcoMoon.io -->
<svg version="1.1" xmlns="http://www.w3.org/2000/svg" width="34" height="32" viewBox="0 0 34 32">
<title>company-lemon</title>
<path d="M5.643 31.315c0.025 0 0.047 0.010 0.064 0.025l-0-0 0.166 0.159c-0.13 0.128-0.285 0.23-0.458 0.299l-0.009 0.003c-0.21 0.076-0.435 0.113-0.663 0.108-0.010 0-0.021 0-0.033 0-0.212 0-0.414-0.037-0.603-0.105l0.012 0.004c-0.182-0.066-0.338-0.163-0.47-0.286l0.001 0.001c-0.128-0.121-0.231-0.268-0.3-0.432l-0.003-0.008c-0.067-0.162-0.106-0.351-0.106-0.549 0-0.006 0-0.011 0-0.017v0.001c-0-0.009-0-0.020-0-0.031 0-0.387 0.168-0.735 0.435-0.975l0.001-0.001c0.142-0.124 0.312-0.222 0.499-0.287 0.205-0.069 0.422-0.103 0.642-0.101 0.204-0.004 0.407 0.027 0.596 0.092 0.165 0.062 0.316 0.148 0.447 0.255l-0.139 0.17c-0.010 0.012-0.022 0.022-0.034 0.031l-0.001 0c-0.014 0.008-0.031 0.013-0.049 0.013-0.002 0-0.005-0-0.007-0l0 0c-0.022-0.001-0.043-0.008-0.061-0.018l0.001 0-0.075-0.045-0.104-0.058c-0.037-0.018-0.083-0.037-0.13-0.053l-0.009-0.003c-0.127-0.040-0.273-0.063-0.424-0.063-0.004 0-0.008 0-0.012 0h0.001c-0.005-0-0.012-0-0.018-0-0.159 0-0.311 0.028-0.452 0.079l0.009-0.003c-0.136 0.048-0.26 0.121-0.361 0.213-0.099 0.093-0.179 0.206-0.233 0.333l-0.002 0.006c-0.054 0.129-0.085 0.278-0.085 0.435 0 0.005 0 0.009 0 0.014v-0.001c-0 0.005-0 0.011-0 0.017 0 0.158 0.031 0.308 0.088 0.446l-0.003-0.008c0.055 0.132 0.134 0.245 0.231 0.338l0 0c0.095 0.091 0.211 0.163 0.338 0.207l0.007 0.002c0.136 0.049 0.281 0.073 0.428 0.072 0.085 0.001 0.17-0.004 0.253-0.014 0.211-0.022 0.399-0.107 0.549-0.234l-0.001 0.001c0.021-0.018 0.049-0.029 0.079-0.029h0zM10.441 30.517c0.003 0.192-0.035 0.382-0.112 0.561-0.068 0.163-0.174 0.311-0.313 0.436s-0.306 0.222-0.491 0.286c-0.189 0.064-0.406 0.101-0.632 0.101s-0.443-0.037-0.646-0.105l0.014 0.004c-0.189-0.067-0.351-0.165-0.489-0.288l0.001 0.001c-0.133-0.121-0.239-0.267-0.313-0.432l-0.003-0.008c-0.071-0.166-0.113-0.36-0.113-0.563s0.041-0.396 0.116-0.572l-0.004 0.010c0.071-0.164 0.178-0.314 0.316-0.442 0.139-0.12 0.305-0.214 0.488-0.276 0.188-0.065 0.406-0.103 0.632-0.103s0.443 0.038 0.646 0.107l-0.014-0.004c0.185 0.065 0.351 0.163 0.49 0.287 0.137 0.125 0.243 0.273 0.314 0.435 0.077 0.181 0.115 0.372 0.112 0.565zM10.005 30.517c0-0.007 0-0.016 0-0.025 0-0.153-0.029-0.3-0.082-0.434l0.003 0.008c-0.051-0.132-0.127-0.245-0.222-0.338l-0-0c-0.097-0.092-0.214-0.165-0.344-0.211l-0.007-0.002c-0.137-0.047-0.295-0.074-0.459-0.074s-0.322 0.027-0.469 0.077l0.010-0.003c-0.137 0.048-0.254 0.121-0.351 0.213l0-0c-0.097 0.092-0.174 0.205-0.222 0.332l-0.002 0.006c-0.050 0.134-0.080 0.29-0.080 0.451s0.029 0.317 0.082 0.461l-0.003-0.009c0.101 0.26 0.309 0.459 0.568 0.547l0.007 0.002c0.137 0.046 0.295 0.072 0.459 0.072s0.322-0.026 0.47-0.075l-0.011 0.003c0.136-0.048 0.253-0.12 0.352-0.212l-0.001 0c0.095-0.093 0.171-0.206 0.22-0.332l0.002-0.006c0.056-0.145 0.082-0.298 0.079-0.451zM13.715 30.99l0.044 0.101c0.017-0.036 0.031-0.069 0.048-0.101 0.019-0.039 0.037-0.072 0.056-0.103l-0.002 0.004 1.062-1.677c0.021-0.029 0.039-0.047 0.060-0.052s0.047-0.009 0.072-0.009c0.005 0 0.010 0 0.015 0l-0.001-0h0.314v2.727h-0.372v-2.090c-0.001-0.014-0.002-0.030-0.002-0.047s0.001-0.033 0.002-0.049l-0 0.002-1.068 1.7c-0.014 0.025-0.035 0.047-0.063 0.062s-0.059 0.023-0.091 0.023h-0.060c-0.032 0-0.064-0.007-0.091-0.022s-0.049-0.037-0.062-0.062l-1.099-1.711v2.189h-0.359v-2.722h0.314c0.005-0 0.010-0 0.015-0 0.026 0 0.050 0.003 0.074 0.010l-0.002-0c0.026 0.011 0.046 0.030 0.058 0.052l1.084 1.678c0.019 0.028 0.037 0.060 0.052 0.093l0.002 0.004zM17.71 30.855v1.021h-0.415v-2.723h0.926c0.175-0.003 0.349 0.017 0.517 0.059 0.134 0.033 0.259 0.091 0.366 0.17 0.089 0.071 0.159 0.16 0.206 0.263l0.002 0.004c0.045 0.099 0.071 0.214 0.071 0.335 0 0.005-0 0.009-0 0.014v-0.001c0 0.003 0 0.006 0 0.010 0 0.248-0.117 0.469-0.299 0.61l-0.002 0.001c-0.104 0.080-0.227 0.142-0.361 0.178l-0.007 0.002c-0.14 0.040-0.301 0.063-0.467 0.063-0.012 0-0.024-0-0.035-0l0.002 0-0.503-0.007zM17.71 30.562h0.503c0.003 0 0.007 0 0.011 0 0.111 0 0.218-0.015 0.32-0.043l-0.008 0.002c0.089-0.026 0.167-0.066 0.235-0.118l-0.002 0.001c0.117-0.097 0.191-0.243 0.191-0.406 0-0.001 0-0.002 0-0.004v0c0.005-0.076-0.009-0.151-0.042-0.222s-0.082-0.134-0.145-0.186c-0.138-0.093-0.309-0.149-0.492-0.149-0.024 0-0.047 0.001-0.070 0.003l0.003-0h-0.503v1.122zM23.294 31.88h-0.328c-0.002 0-0.004 0-0.006 0-0.032 0-0.061-0.009-0.086-0.025l0.001 0c-0.023-0.016-0.041-0.037-0.054-0.062l-0-0.001-0.282-0.659h-1.419l-0.293 0.659c-0.025 0.052-0.077 0.088-0.138 0.088-0.002 0-0.005-0-0.007-0h-0.328l1.246-2.727h0.432l1.263 2.727zM21.237 30.867h1.172l-0.494-1.11c-0.033-0.071-0.065-0.156-0.090-0.244l-0.003-0.012-0.048 0.143c-0.016 0.047-0.031 0.086-0.049 0.123l0.003-0.007-0.49 1.108zM25.089 29.165c0.025 0.012 0.045 0.028 0.062 0.049l0 0 1.818 2.056v-2.117h0.372v2.727h-0.208c-0.002 0-0.004 0-0.006 0-0.028 0-0.056-0.006-0.080-0.017l0.001 0c-0.026-0.013-0.048-0.030-0.067-0.050l-0-0-1.816-2.054c0.001 0.014 0.002 0.030 0.002 0.047s-0.001 0.033-0.002 0.049l0-0.002v2.027h-0.372v-2.727h0.22c0.002-0 0.004-0 0.006-0 0.025 0 0.049 0.005 0.071 0.014l-0.001-0zM30.402 30.795v1.083h-0.415v-1.083l-1.149-1.642h0.372c0.003-0 0.006-0 0.009-0 0.030 0 0.058 0.009 0.081 0.024l-0.001-0c0.022 0.017 0.041 0.037 0.055 0.060l0.001 0.001 0.719 1.059c0.050 0.070 0.092 0.15 0.125 0.235l0.002 0.007 0.054-0.117c0.023-0.049 0.047-0.089 0.073-0.128l-0.002 0.003 0.708-1.067c0.016-0.022 0.034-0.041 0.053-0.058l0-0c0.023-0.017 0.052-0.027 0.083-0.027 0.002 0 0.004 0 0.006 0h0.376l-1.151 1.65zM13.51 24.576c0.181 0.020 0.364 0.036 0.548 0.051 2.803-1.089 5.174-2.873 6.817-5.126s2.485-4.878 2.421-7.546l-3.089-2.684c0.628 2.84 0.334 5.776-0.849 8.479s-3.208 5.067-5.849 6.827z"></path>
<path d="M12.407 24.451l0.083 0.014c2.822-1.754 4.974-4.203 6.176-7.030s1.402-5.904 0.571-8.83l-4.4-3.823c1.78 3.142 2.496 6.659 2.066 10.141s-1.989 6.786-4.496 9.528zM27.328 15.106c-0.747 2.931-2.563 5.574-5.177 7.537-0.714 0.543-1.519 1.053-2.368 1.491l-0.092 0.043c2.128-0.544 4.085-1.504 5.718-2.809s2.9-2.917 3.703-4.714l-1.784-1.549z"></path>
<path d="M26.628 14.674l-2.541-2.207c-0.049 2.517-0.872 4.976-2.385 7.123s-3.66 3.902-6.217 5.084h0.012c0.57 0 1.139-0.030 1.705-0.088 2.39-0.848 4.502-2.196 6.147-3.926s2.771-3.785 3.278-5.985zM12.774 3.17l-3.031-2.637c-2.709 0.91-5.040 2.509-6.686 4.588s-2.531 4.542-2.54 7.066c0.010 2.789 1.090 5.495 3.070 7.69s4.745 3.754 7.859 4.43c2.78-2.942 4.407-6.579 4.646-10.38s-0.924-7.569-3.319-10.757zM33.63 14.268c-0.011-3.309-1.529-6.479-4.221-8.818s-6.342-3.658-10.15-3.668c-0.009-0-0.020-0-0.030-0-1.83 0-3.589 0.305-5.229 0.866l0.114-0.034 18.557 16.123c0.605-1.313 0.958-2.85 0.96-4.468v-0.001z"></path>
</svg>
