<!-- Generated by IcoMoon.io -->
<svg version="1.1" xmlns="http://www.w3.org/2000/svg" width="65" height="32" viewBox="0 0 65 32">
<title>foster</title>
<path d="M10.016 9.983h-0.002c-1.827 0-3.308 1.316-3.308 2.94v0.002c0 1.624 1.481 2.94 3.308 2.94h0.002c1.827 0 3.308-1.316 3.308-2.94v-0.002c0-1.624-1.481-2.94-3.308-2.94zM34.434 9.043c-0.005-2.255-1.015-4.417-2.81-6.012s-4.226-2.493-6.764-2.498c-2.538 0.004-4.972 0.902-6.767 2.497s-2.806 3.757-2.811 6.013v12.436s19.149-1.895 19.151-12.434v-0.002zM0 25.562c0.005 1.569 0.708 3.073 1.956 4.183s2.94 1.735 4.706 1.74c1.765-0.005 3.457-0.63 4.705-1.739s1.952-2.613 1.957-4.182v-8.654s-13.325 1.32-13.325 8.652zM6.662 27.112c-0.345 0-0.682-0.091-0.969-0.261s-0.511-0.413-0.643-0.696-0.167-0.595-0.099-0.896 0.233-0.577 0.477-0.794 0.555-0.364 0.893-0.424c0.338-0.060 0.689-0.029 1.008 0.088s0.591 0.316 0.783 0.571c0.184 0.235 0.295 0.535 0.295 0.861 0 0.216-0.049 0.42-0.136 0.603l0.004-0.009c-0.087 0.189-0.216 0.36-0.378 0.505s-0.355 0.259-0.567 0.338-0.439 0.119-0.669 0.119v-0.006zM20.128 26.258h-1.286v1.328h-0.67v-3.25h2.116v0.542h-1.446v0.839h1.286v0.54zM23.346 26.035c0 0.32-0.057 0.6-0.17 0.842s-0.275 0.427-0.487 0.558c-0.21 0.131-0.451 0.196-0.723 0.196-0.012 0-0.027 0.001-0.042 0.001-0.516 0-0.961-0.303-1.167-0.741l-0.003-0.008c-0.111-0.235-0.176-0.51-0.176-0.801 0-0.010 0-0.021 0-0.031l-0 0.002v-0.161c0-0.32 0.057-0.601 0.172-0.844 0.207-0.45 0.653-0.757 1.171-0.757 0.014 0 0.029 0 0.043 0.001l-0.002-0c0.271 0 0.511 0.065 0.721 0.196 0.211 0.129 0.374 0.316 0.489 0.56 0.116 0.242 0.174 0.523 0.174 0.841v0.145zM22.668 25.888c0-0.341-0.061-0.6-0.183-0.777s-0.296-0.266-0.522-0.266c-0.008-0-0.016-0.001-0.025-0.001-0.205 0-0.386 0.104-0.493 0.261l-0.001 0.002c-0.122 0.174-0.184 0.43-0.185 0.768v0.158c0 0.332 0.061 0.589 0.183 0.772s0.298 0.275 0.527 0.275c0.008 0 0.017 0.001 0.025 0.001 0.205 0 0.385-0.104 0.491-0.261l0.001-0.002c0.121-0.177 0.182-0.434 0.183-0.772v-0.158zM25.518 26.734c0-0.005 0-0.012 0-0.018 0-0.11-0.052-0.209-0.134-0.271l-0.001-0.001c-0.089-0.068-0.25-0.14-0.482-0.214-0.214-0.067-0.396-0.142-0.57-0.232l0.019 0.009c-0.369-0.199-0.554-0.468-0.554-0.806 0-0.176 0.049-0.332 0.147-0.469 0.109-0.143 0.253-0.255 0.419-0.322l0.007-0.002c0.186-0.077 0.394-0.116 0.625-0.116s0.439 0.042 0.621 0.127c0.175 0.078 0.318 0.2 0.42 0.351l0.002 0.004c0.095 0.143 0.152 0.319 0.152 0.508 0 0.005-0 0.009-0 0.014v-0.001h-0.67c0-0.008 0.001-0.016 0.001-0.025 0-0.127-0.055-0.241-0.141-0.321l-0-0c-0.094-0.083-0.225-0.125-0.395-0.125-0.164 0-0.291 0.035-0.382 0.105-0.083 0.059-0.136 0.155-0.136 0.263 0 0.003 0 0.006 0 0.009v-0c0 0.106 0.053 0.194 0.158 0.266 0.107 0.071 0.264 0.138 0.471 0.201 0.381 0.115 0.659 0.257 0.833 0.426s0.261 0.381 0.261 0.634c0 0.009 0.001 0.020 0.001 0.031 0 0.258-0.125 0.488-0.317 0.631l-0.002 0.002c-0.213 0.159-0.499 0.239-0.859 0.239-0.25 0-0.478-0.045-0.683-0.136-0.193-0.082-0.352-0.212-0.469-0.374l-0.002-0.003c-0.101-0.151-0.161-0.336-0.161-0.535 0-0.007 0-0.013 0-0.020v0.001h0.672c0 0.359 0.214 0.538 0.643 0.538 0.011 0.001 0.024 0.001 0.037 0.001 0.125 0 0.241-0.036 0.339-0.099l-0.003 0.002c0.082-0.058 0.134-0.153 0.134-0.26 0-0.004-0-0.009-0-0.013l0 0.001zM29.092 24.879h-0.996v2.708h-0.67v-2.708h-0.982v-0.542h2.647v0.542zM31.431 26.178h-1.286v0.871h1.509v0.538h-2.179v-3.25h2.174v0.542h-1.504v0.775h1.286v0.525zM33.251 26.396h-0.533v1.19h-0.67v-3.25h1.208c0.384 0 0.68 0.086 0.888 0.257s0.312 0.413 0.312 0.725c0 0.011 0.001 0.024 0.001 0.037 0 0.192-0.054 0.371-0.148 0.523l0.002-0.004c-0.108 0.156-0.255 0.278-0.429 0.351l-0.006 0.002 0.703 1.328v0.031h-0.719l-0.609-1.19zM32.717 25.854h0.54c0.168 0 0.298-0.042 0.391-0.127 0.086-0.084 0.139-0.201 0.139-0.33 0-0.009-0-0.017-0.001-0.026l0 0.001c0-0.008 0.001-0.017 0.001-0.027 0-0.13-0.050-0.248-0.133-0.336l0 0c-0.086-0.088-0.219-0.132-0.4-0.132h-0.538v0.975zM36.775 26.441v1.145h-0.67v-3.25h1.268c0.244 0 0.458 0.045 0.643 0.134 0.18 0.084 0.326 0.215 0.427 0.378l0.002 0.004c0.1 0.164 0.15 0.35 0.15 0.56 0 0.318-0.109 0.57-0.328 0.754-0.217 0.183-0.519 0.275-0.904 0.275h-0.587zM36.775 25.899h0.598c0.177 0 0.312-0.042 0.404-0.125 0.094-0.083 0.141-0.202 0.141-0.357 0-0.159-0.047-0.288-0.141-0.386s-0.223-0.149-0.388-0.152h-0.614v1.020zM41.012 26.178h-1.286v0.871h1.509v0.538h-2.179v-3.25h2.174v0.542h-1.504v0.775h1.286v0.525zM44.119 24.879h-0.995v2.708h-0.67v-2.708h-0.982v-0.542h2.647v0.542zM46.458 26.178h-1.286v0.871h1.509v0.538h-2.178v-3.25h2.174v0.542h-1.504v0.775h1.286v0.525zM48.277 26.396h-0.533v1.19h-0.67v-3.25h1.208c0.384 0 0.68 0.086 0.888 0.257s0.313 0.413 0.313 0.725c0 0.011 0.001 0.024 0.001 0.037 0 0.192-0.054 0.371-0.148 0.523l0.002-0.004c-0.108 0.156-0.255 0.278-0.429 0.351l-0.006 0.002 0.703 1.328v0.031h-0.719l-0.609-1.19zM47.744 25.854h0.54c0.168 0 0.298-0.042 0.391-0.127 0.086-0.084 0.139-0.201 0.139-0.33 0-0.009-0-0.017-0.001-0.026l0 0.001c0-0.008 0.001-0.017 0.001-0.027 0-0.13-0.050-0.248-0.133-0.336l0 0c-0.086-0.088-0.219-0.132-0.4-0.132h-0.538v0.975zM51.679 26.734c0-0.005 0-0.012 0-0.018 0-0.11-0.052-0.209-0.134-0.271l-0.001-0.001c-0.089-0.068-0.25-0.14-0.482-0.214-0.214-0.067-0.396-0.142-0.57-0.232l0.019 0.009c-0.369-0.199-0.554-0.468-0.554-0.806 0-0.176 0.049-0.332 0.147-0.469 0.109-0.143 0.253-0.255 0.419-0.322l0.007-0.002c0.186-0.077 0.394-0.116 0.625-0.116s0.439 0.042 0.621 0.127c0.175 0.078 0.318 0.199 0.42 0.351l0.002 0.004c0.095 0.143 0.152 0.319 0.152 0.508 0 0.005-0 0.009-0 0.014v-0.001h-0.67c0-0.008 0.001-0.016 0.001-0.025 0-0.127-0.054-0.241-0.141-0.321l-0-0c-0.094-0.083-0.225-0.125-0.395-0.125-0.164 0-0.291 0.035-0.382 0.105-0.083 0.059-0.136 0.155-0.136 0.263 0 0.003 0 0.006 0 0.009v-0c0 0.106 0.053 0.194 0.158 0.266 0.107 0.071 0.264 0.138 0.471 0.201 0.381 0.115 0.658 0.257 0.833 0.426s0.261 0.381 0.261 0.634c0 0.009 0.001 0.020 0.001 0.031 0 0.258-0.125 0.488-0.318 0.631l-0.002 0.002c-0.213 0.159-0.499 0.239-0.859 0.239-0.25 0-0.478-0.045-0.683-0.136-0.193-0.082-0.352-0.212-0.469-0.374l-0.002-0.003c-0.101-0.151-0.161-0.336-0.161-0.535 0-0.007 0-0.013 0-0.020v0.001h0.672c0 0.359 0.214 0.538 0.643 0.538 0.011 0.001 0.023 0.001 0.036 0.001 0.125 0 0.241-0.036 0.34-0.099l-0.003 0.002c0.082-0.058 0.134-0.153 0.134-0.26 0-0.004-0-0.009-0-0.013l0 0.001z"></path>
</svg>
