<!-- Generated by IcoMoon.io -->
<svg version="1.1" xmlns="http://www.w3.org/2000/svg" width="28" height="32" viewBox="0 0 28 32">
<title>yaco</title>
<path d="M4.085 0l4.771 4.517-8.856-0.005v21.915h23.149v-8.379l4.766 4.512v-22.559h-23.83zM22.939 17.517l-13.528-12.807h13.528v12.807zM18.739 23.221h-15.076v-14.739h1.066v13.741h14.010v0.998zM7.223 29.344h0.465l-0.811 1.529v0.891h-0.422v-0.891l-0.813-1.529h0.467l0.557 1.147 0.557-1.147zM7.923 31.764l0.196-0.563h0.938l0.198 0.563h0.439l-0.916-2.42h-0.377l-0.914 2.42h0.437zM8.588 29.858l0.351 1.004h-0.701l0.351-1.004zM10.805 30.804c-0.057 0.085-0.091 0.19-0.091 0.303 0 0.001 0 0.003 0 0.004v-0c0 0.204 0.072 0.37 0.214 0.497 0.144 0.126 0.336 0.189 0.575 0.189s0.445-0.065 0.618-0.194l0.136 0.161h0.469l-0.356-0.421c0.14-0.191 0.209-0.435 0.209-0.733h-0.351c0 0.004 0 0.008 0 0.012 0 0.157-0.037 0.306-0.104 0.437l0.003-0.006-0.467-0.552 0.165-0.12c0.1-0.068 0.184-0.152 0.249-0.25l0.002-0.003c0.048-0.078 0.076-0.173 0.076-0.274 0-0.002 0-0.003-0-0.005v0c0-0.003 0-0.007 0-0.010 0-0.149-0.066-0.282-0.17-0.373l-0.001-0c-0.108-0.097-0.251-0.156-0.408-0.156-0.008 0-0.017 0-0.025 0l0.001-0c-0.010-0.001-0.022-0.001-0.034-0.001-0.166 0-0.318 0.063-0.432 0.167l0.001-0c-0.107 0.107-0.174 0.255-0.174 0.419 0 0.011 0 0.021 0.001 0.032l-0-0.001c0 0.078 0.018 0.158 0.055 0.241 0.038 0.083 0.104 0.184 0.198 0.303-0.18 0.129-0.3 0.24-0.361 0.334zM11.897 31.339c-0.104 0.084-0.237 0.135-0.382 0.136h-0c-0.121 0-0.217-0.035-0.289-0.105s-0.108-0.161-0.108-0.273c0-0.13 0.067-0.245 0.2-0.346l0.052-0.037 0.529 0.623zM11.463 30.267c-0.114-0.141-0.171-0.258-0.171-0.351 0-0.081 0.023-0.148 0.070-0.201s0.109-0.080 0.188-0.080c0.073 0 0.133 0.023 0.181 0.068 0.044 0.039 0.072 0.095 0.072 0.158 0 0.001 0 0.002-0 0.003v-0c0 0.003 0 0.006 0 0.009 0 0.090-0.040 0.171-0.103 0.225l-0 0-0.052 0.042-0.184 0.126zM15.403 31.581c-0.166 0.144-0.387 0.216-0.663 0.216-0.006 0-0.013 0-0.020 0-0.181 0-0.35-0.051-0.494-0.139l0.004 0.002c-0.146-0.092-0.259-0.222-0.339-0.391s-0.121-0.364-0.125-0.587v-0.226c0-0.228 0.040-0.429 0.121-0.603s0.197-0.308 0.347-0.402c0.144-0.089 0.319-0.141 0.506-0.141 0.007 0 0.013 0 0.020 0h-0.001c0.267 0 0.482 0.073 0.645 0.218s0.258 0.35 0.284 0.615h-0.419c-0.020-0.174-0.071-0.299-0.153-0.376-0.081-0.078-0.2-0.116-0.357-0.116-0.008-0-0.016-0.001-0.025-0.001-0.162 0-0.306 0.079-0.396 0.2l-0.001 0.001c-0.098 0.133-0.147 0.329-0.15 0.587v0.214c0 0.262 0.046 0.461 0.14 0.598s0.232 0.206 0.412 0.206c0.165 0 0.289-0.037 0.372-0.111s0.136-0.198 0.158-0.371h0.419c-0.024 0.258-0.12 0.46-0.286 0.605zM17.875 31.242c0.082-0.18 0.123-0.388 0.123-0.625v-0.135c0-0.008 0-0.017 0-0.026 0-0.215-0.046-0.419-0.13-0.603l0.004 0.009c-0.147-0.328-0.47-0.553-0.846-0.553-0.011 0-0.022 0-0.034 0.001l0.002-0c-0.005-0-0.012-0-0.018-0-0.188 0-0.363 0.054-0.511 0.148l0.004-0.002c-0.155 0.101-0.277 0.241-0.352 0.408l-0.002 0.006c-0.079 0.176-0.125 0.381-0.125 0.597 0 0.010 0 0.020 0 0.030l-0-0.001v0.136c0.001 0.232 0.043 0.436 0.126 0.613 0.079 0.171 0.201 0.311 0.352 0.409l0.004 0.002c0.145 0.090 0.321 0.143 0.51 0.143 0.005 0 0.011-0 0.016-0h-0.001c0.005 0 0.012 0 0.018 0 0.188 0 0.363-0.053 0.511-0.146l-0.004 0.002c0.155-0.1 0.276-0.24 0.35-0.406l0.002-0.006zM17.424 29.874c0.102 0.143 0.153 0.349 0.153 0.617v0.126c0 0.273-0.050 0.48-0.151 0.622-0.090 0.13-0.238 0.214-0.406 0.214-0.008 0-0.016-0-0.024-0.001l0.001 0c-0.005 0-0.011 0-0.017 0-0.171 0-0.323-0.086-0.414-0.217l-0.001-0.002c-0.103-0.145-0.155-0.351-0.155-0.617v-0.14c0.002-0.26 0.054-0.462 0.156-0.603 0.091-0.13 0.24-0.214 0.408-0.214 0.007 0 0.013 0 0.020 0l-0.001-0c0.186 0 0.33 0.072 0.43 0.214z"></path>
</svg>
